<svg xmlns="http://www.w3.org/2000/svg" viewBox="0 0 567.31 362.46"><defs><style>.cls-1{fill:#d9d9d9;}.cls-2{fill:#3bbb53;}.cls-3{fill:#029c54;}.cls-4{fill:#64e082;}.cls-5{fill:#ffc744;}.cls-6{fill:#ffe27e;}.cls-7{fill:#d17c31;}.cls-8{fill:#ff9431;}.cls-9{fill:#66eece;}.cls-10,.cls-43{fill:#181818;}.cls-11{fill:#ff6f4f;}.cls-12{fill:#63e1c4;}.cls-13{fill:#ffee36;}.cls-14{fill:#644c5e;}.cls-15{fill:#ffae44;}.cls-16{fill:#ffaa35;}.cls-17{fill:#c88884;}.cls-18{fill:#ba7784;}.cls-19{fill:#ffd640;}.cls-20{fill:#fff7c2;}.cls-21{fill:#ffb540;}.cls-22{fill:#ff6341;}.cls-23{fill:#ffeab3;}.cls-24{fill:#d9a740;}.cls-25{fill:#54baa2;}.cls-26{fill:#a5c2ec;}.cls-27{fill:#fff;}.cls-28{fill:#d4e4f8;}.cls-29{fill:#8b6167;}.cls-30{fill:#4a5262;}.cls-31{fill:#828184;}.cls-32{fill:#ffa984;}.cls-33{fill:#ff9681;}.cls-34{fill:#d27f76;}.cls-35{fill:#ed9079;}.cls-36{fill:#4b3b59;}.cls-37{fill:#726674;}.cls-38{fill:#a097a7;}.cls-39{fill:#954eb0;}.cls-40{fill:#e59884;}.cls-41{fill:#070707;}.cls-42{fill:#08080a;}.cls-43{font-size:14.12px;font-family:Poppins-Black, Poppins;font-weight:800;letter-spacing:0.08em;}</style></defs><title>gsSvg</title><g id="OBJECTS"><path class="cls-1" d="M-233,417.12l-306.3,0c-11.2-18.09-29.51-35.69-42.53-52.44s-24.71-35.48-28.37-56.58c-2.69-15.52-1.92-67,59.93-71.72,9.38-.72,19.22-.27,27.7-4.45a45.51,45.51,0,0,0,8.82-6.07c5.56-4.6,10.92-9.68,14.51-16,12.07-21.33,3-48.57,14.6-70.32,10.55-19.76,31.08-32.74,52.08-37.73,25.8-6.14,53.2-2.25,78.84,4.54,11.86,3.14,29.77,2.34,41.48-1.36,10.82-3.43,20.08-10.62,30.32-15.58s22.86-7.5,32.55-1.49c8.21,5.1,12.32,15.27,13,25.09s-1.59,19.56-3.34,29.24c-4.21,23.35-6.61,48,.41,70.65,10,32.39,62.32,77.2,71.16,89.23,7.39,10.06,11.55,23.32,8.9,35.63a40.27,40.27,0,0,1-22.66,28c-5.94,2.6-12.4,3.64-18.59,5.51-9.41,2.86-18.42,7.83-24.84,15.44S-234.87,407.23-233,417.12Z" transform="translate(611.04 -54.66)"/><path class="cls-1" d="M-184.18,246.87a22.51,22.51,0,0,0,9.41,3.4c3.35.26,7-.78,9.12-3.32,3.13-3.67,2.87-9.23,1.29-13.76-4.4-12.63-24.54-30.53-34.7-28.26-17.88,4-1.35,27.47,4.67,33.8A47.25,47.25,0,0,0-184.18,246.87Z" transform="translate(611.04 -54.66)"/><path class="cls-1" d="M-505.56,201.46a7.26,7.26,0,0,1-4.42-1.54,12.41,12.41,0,0,1-4.89-10.77A14.66,14.66,0,0,1-509,178.7a11.7,11.7,0,0,1,6.14-2.48C-488.78,175.29-493.71,201-505.56,201.46Z" transform="translate(611.04 -54.66)"/><path class="cls-1" d="M-203.11,378.74c3.87-.6,8.16,1.6,9.36,5.28.87,2.68.08,5.6-.92,8.23-2.36,6.16-11.74,16.2-17,6.67C-215.47,391.87-211.77,380.06-203.11,378.74Z" transform="translate(611.04 -54.66)"/><path class="cls-1" d="M-321.46,101.2a21.32,21.32,0,0,1-9.06-1A10.65,10.65,0,0,1-337,94.17c-1.56-4.41,1-9.5,5-12s9-2.94,13.71-2.57c6.31.51,15.51,3.74,14.72,11.59S-315.19,100.72-321.46,101.2Z" transform="translate(611.04 -54.66)"/><path class="cls-2" d="M-422.57,136l-9.32-.77,7.67-3.92A283.22,283.22,0,0,0-438.79,99.2c-2.6,2.14-5.27,4.07-5.27,4.07l2.36-9.56c-5.05-9.32-8.9-15.59-8.9-15.59-7.39,24.19-9.12,45.53-8.21,63.11l9.18.56-8.89,3.8c2.43,30.92,12.82,49.1,12.82,49.1s29-10.28,27.6-38.15C-418.41,150.52-420.1,143.44-422.57,136Z" transform="translate(611.04 -54.66)"/><path class="cls-3" d="M-433.74,171.77c-2.19-7.36-4.35-16.94-6.31-26.91l4.21-7-1.12-.66-3.46,5.78c-1-5.08-1.92-10.23-2.78-15.2l3.48-6.27-1.14-.62-2.69,4.84c-.88-5.19-1.68-10.14-2.37-14.58l2.6-4.5-1.13-.64-1.79,3.09c-1.56-10.1-2.51-17.11-2.54-17.3l-1.29.17c0,.14.55,4,1.46,10.2l-2.48-1.56-.7,1.09,3.43,2.15c.57,3.8,1.26,8.31,2.06,13.24l-3.9-3.53-.88,1,5.11,4.63c.82,5,1.73,10.34,2.71,15.77l-4.56-3.49-.8,1,5.71,4.37c2.36,12.84,5.1,25.91,7.92,35.35Z" transform="translate(611.04 -54.66)"/><path class="cls-3" d="M-413,153.33l-1.29-.19c5.6-37,31.61-83.72,31.87-84.19l1.14.62C-381.55,70-407.45,116.59-413,153.33Z" transform="translate(611.04 -54.66)"/><path class="cls-4" d="M-411.25,140.8a13.7,13.7,0,0,1,7.6-7.74,23.4,23.4,0,0,1,11-1.58C-396.11,137.88-404,141.62-411.25,140.8Z" transform="translate(611.04 -54.66)"/><path class="cls-3" d="M-408,129.36c-3.72-.45-6.59-3.77-7.51-7.36s-.23-7.39.76-11a10,10,0,0,1,2.54,2.52C-409,118-407.06,124-408,129.36Z" transform="translate(611.04 -54.66)"/><path class="cls-3" d="M-403.48,115.7A10.22,10.22,0,0,1-397,110a22.11,22.11,0,0,1,8.88-.67A18,18,0,0,1-403.48,115.7Z" transform="translate(611.04 -54.66)"/><path class="cls-2" d="M-398.82,103.13a10.43,10.43,0,0,1-3.85-5.76,24.4,24.4,0,0,1-.69-7A4.58,4.58,0,0,1-399.44,93C-397.91,95.77-398.17,100-398.82,103.13Z" transform="translate(611.04 -54.66)"/><path class="cls-2" d="M-382.37,88.54a18.88,18.88,0,0,0-6-.06A6.26,6.26,0,0,0-393,91.89a3,3,0,0,0,2.12.59,8.8,8.8,0,0,0,2.26-.56A17.73,17.73,0,0,0-382.37,88.54Z" transform="translate(611.04 -54.66)"/><path class="cls-3" d="M-389,83s-4.27-1.93-3.12-9.07C-392.15,73.9-387.49,74.12-389,83Z" transform="translate(611.04 -54.66)"/><path class="cls-2" d="M-385,75.1a6.34,6.34,0,0,1,3.51-2.76,11.53,11.53,0,0,1,4.53-.48,5.19,5.19,0,0,1-3.12,4.07C-381.75,76.65-383.4,75.78-385,75.1Z" transform="translate(611.04 -54.66)"/><path class="cls-3" d="M-367.11,64C-383.75,91.67-384,153.33-384,153.33l22.63-2.81C-359.67,105.52-367.11,64-367.11,64Z" transform="translate(611.04 -54.66)"/><path class="cls-2" d="M-365.66,112.56l-1.29-.16a85.15,85.15,0,0,1-4,15.65c.14-9.18.55-19.18,1-27.7.7-1,4.27-6.39,4.29-11.16h-1.3c0,3-1.63,6.36-2.85,8.48.55-10.27,1.1-17.79,1.11-18l-1.3-.1c0,.3-1.17,16.3-1.83,33.65a31.89,31.89,0,0,1-2.51-12.12l-1.3,0c.18,9,3.43,14.3,3.57,14.52l.15-.09c-.3,8.69-.47,17.55-.29,24.81a22.5,22.5,0,0,1-5.6-12.79l-1.3.12a23.22,23.22,0,0,0,7,14.59c.11,3.43.32,6.43.63,8.79l1.3-.17A153.6,153.6,0,0,1-371,132C-370.46,130.68-366.67,120.64-365.66,112.56Z" transform="translate(611.04 -54.66)"/><path class="cls-4" d="M-347.85,130.48c-2.53.63-5.25-.85-6.68-3a13.35,13.35,0,0,1-1.82-7.42c0-2.58.3-5.17.09-7.74,2.29,1.35,4.06,3.72,5.55,5.9a12.3,12.3,0,0,1,1.49,2.61,13.22,13.22,0,0,1,.58,2.71C-348.35,125.67-348.14,128.36-347.85,130.48Z" transform="translate(611.04 -54.66)"/><path class="cls-2" d="M-340.14,109.69a13.61,13.61,0,0,1,2.5-9.56,13.88,13.88,0,0,1,8.41-5.36,20,20,0,0,1-2.63,9.64A12,12,0,0,1-340.14,109.69Z" transform="translate(611.04 -54.66)"/><path class="cls-3" d="M-344.07,91.52a7.2,7.2,0,0,1-5.26-3.87,21,21,0,0,1-1.93-6.42c-.24-1.34-.49-2.68-.74-4A15.07,15.07,0,0,1-344.07,91.52Z" transform="translate(611.04 -54.66)"/><path class="cls-3" d="M-336.54,74.28a8.92,8.92,0,0,1,3.39-6.85,12.87,12.87,0,0,1,7.37-2.67A10.64,10.64,0,0,1-329,71.58C-330.8,73.33-334,74.2-336.54,74.28Z" transform="translate(611.04 -54.66)"/><path class="cls-2" d="M-338.83,68.94c-1.84-1.89-2.17-4.84-1.49-7.37a23,23,0,0,1,3.68-6.91,17.65,17.65,0,0,1,.95,7.75C-336,65-336.75,67.32-338.83,68.94Z" transform="translate(611.04 -54.66)"/><path class="cls-3" d="M-331.42,69.63l-.62-.74a40.38,40.38,0,0,0-7.16,8.57c.66-5,1.32-9.62,2-13.4l-1-.16c-1.39,8-2.81,19.61-4.1,31.63a29.83,29.83,0,0,0-5.42-11.37l-.76.6c4.66,5.67,5.79,13.67,5.84,14C-344,112-345.21,125.33-346,134.68c-1.13-3.86-3.62-10.9-7.56-14.82l-.69.68c5.16,5.14,7.85,16.32,8,17-.5,5.9-.79,9.63-.8,9.77l-1.27,10.23,1,.12,1.27-10.25c0-.26.94-12,2.34-27.13.34-1,4.88-14.5,9.77-18.79l-.65-.73c-3.65,3.21-7,11-8.76,15.61,1.11-11.85,2.47-25.22,3.9-36.59C-339,79-335.37,72.9-331.42,69.63Z" transform="translate(611.04 -54.66)"/><path class="cls-2" d="M-318,94.77c-9.62,13.25-20.1,54.51-20.1,54.51l18.5,8.32C-313.4,113.92-318,94.77-318,94.77Z" transform="translate(611.04 -54.66)"/><path class="cls-3" d="M-319.31,118.16l-.62-.75-1.91,1.53c1.48-6.3,2.66-10.49,2.69-10.59l-.94-.26c0,.07-.52,1.83-1.26,4.76L-322.8,111l-.78.58,1.92,2.51c-.73,2.91-1.64,6.71-2.57,11l-1-3-.93.31,1.58,4.59c-.86,4.13-1.71,8.65-2.42,13.25l-1.74-4.21-.91.36,2.37,5.74c-.55,3.73-1,7.49-1.25,11.12l1,.07c.43-5.8,1.3-11.94,2.32-17.76l3.84-3.77-.69-.68-2.85,2.79c.89-4.88,1.88-9.47,2.78-13.39Z" transform="translate(611.04 -54.66)"/><path class="cls-3" d="M-316.37,185.63s18.23-41.83,22.27-61.22c0,0-30.18,28.06-32.72,41.24S-316.37,185.63-316.37,185.63Z" transform="translate(611.04 -54.66)"/><polygon class="cls-2" points="293.84 111.85 292.99 111.38 309.24 82.6 310.09 83.07 293.84 111.85"/><ellipse class="cls-5" cx="393.42" cy="117.47" rx="21.33" ry="21.08"/><path class="cls-6" d="M-200.91,159.06a20,20,0,0,0-2.08-2.23l-13.1,12.94V151.13c-.51,0-1-.07-1.53-.07s-1,0-1.53.07v18.64l-13.1-12.94a20,20,0,0,0-2.08,2.23l13,12.85h-17.62c0,.08,0,.15,0,.22a21.6,21.6,0,0,0,.21,2.81h17.42l-11.79,11.65a19.82,19.82,0,0,0,2.25,2l11.71-11.56v16.06c.51,0,1,.07,1.53.07s1,0,1.53-.07V177.08l11.7,11.56a19.09,19.09,0,0,0,2.26-2l-11.79-11.65h17.42a21.6,21.6,0,0,0,.21-2.81c0-.07,0-.14,0-.22h-17.62Z" transform="translate(611.04 -54.66)"/><ellipse class="cls-7" cx="393.42" cy="117.47" rx="16.87" ry="16.67"/><ellipse class="cls-8" cx="393.42" cy="117.47" rx="14.54" ry="14.37"/><path class="cls-6" d="M-216.27,179.22v2.58h-2.33v-2.51a11.12,11.12,0,0,1-5.79-1.84l1.28-2.8a9.46,9.46,0,0,0,4.51,1.63v-3.84c-2.58-.62-5.46-1.47-5.46-4.75,0-2.44,1.79-4.53,5.46-4.94V160.2h2.33v2.5a10.71,10.71,0,0,1,4.72,1.4l-1.16,2.83a9.63,9.63,0,0,0-3.56-1.2v3.91c2.58.6,5.42,1.45,5.42,4.69C-210.85,176.72-212.62,178.79-216.27,179.22Zm-2.33-10.15V165.8c-1.23.28-1.72.95-1.72,1.7S-219.62,168.74-218.6,169.07Zm4,5.53c0-.8-.67-1.24-1.67-1.58v3.17C-215.11,175.94-214.6,175.34-214.6,174.6Z" transform="translate(611.04 -54.66)"/><ellipse class="cls-9" cx="399.04" cy="202.37" rx="16.1" ry="15.91"/><path class="cls-10" d="M-207.83,241.68c-.33-.09-.67-.18-1-.25a57.27,57.27,0,0,1,1.71,11.33c-1.61-.09-3.25-.13-4.87-.13s-3.25,0-4.86.13a57.27,57.27,0,0,1,1.71-11.33c-.34.07-.68.16-1,.25a61.77,61.77,0,0,0-1.6,11.13,68.25,68.25,0,0,0-10.05,1.29c-.06.31-.11.63-.15,1a64.88,64.88,0,0,1,10.15-1.36c-.08,1.59-.12,3.21-.12,4.81s0,3.21.12,4.81a66.63,66.63,0,0,1-9.44-1.21c.11.33.23.66.37,1a71.22,71.22,0,0,0,9.12,1.1,71.37,71.37,0,0,0,.93,8c.31.1.64.17,1,.25a65.49,65.49,0,0,1-1-8.22c1.61.08,3.24.13,4.86.13s3.26-.05,4.87-.13a69.44,69.44,0,0,1-1,8.22c.32-.08.64-.15,1-.25a69.2,69.2,0,0,0,.92-8,71.16,71.16,0,0,0,9.13-1.1c.14-.33.25-.66.37-1a66.59,66.59,0,0,1-9.45,1.21c.09-1.6.13-3.21.13-4.81s0-3.22-.13-4.81A64.86,64.86,0,0,1-196,255.05c0-.32-.09-.64-.15-1a68.21,68.21,0,0,0-10.06-1.29A60.94,60.94,0,0,0-207.83,241.68Zm.76,21.68c-1.57.08-3.21.13-4.93.13s-3.35-.05-4.92-.13c-.08-1.55-.13-3.17-.13-4.86s.05-3.32.13-4.87q2.35-.12,4.92-.12c1.72,0,3.36,0,4.93.12.08,1.55.12,3.18.12,4.87S-207,261.81-207.07,263.36Z" transform="translate(611.04 -54.66)"/><path class="cls-10" d="M-191.41,257h-1.18a19.28,19.28,0,0,1-18.06,19.11l1-.76-.72-.92-3,2.27,2.78,2.53.8-.86-1.18-1.07A20.46,20.46,0,0,0-191.41,257Z" transform="translate(611.04 -54.66)"/><path class="cls-10" d="M-213.7,234.88l-.78.88,1.16,1A20.46,20.46,0,0,0-232.58,257h1.18a19.29,19.29,0,0,1,17.92-19.1l-1,.85.75.9,2.91-2.36Z" transform="translate(611.04 -54.66)"/><path class="cls-11" d="M-205.8,330.39h-28.07a5.49,5.49,0,0,1-5.52-5.46V308.78a5.49,5.49,0,0,1,5.52-5.46h28.07a5.49,5.49,0,0,1,5.52,5.46v16.15A5.49,5.49,0,0,1-205.8,330.39Z" transform="translate(611.04 -54.66)"/><path class="cls-10" d="M-321.86,406.22H-438a8.51,8.51,0,0,1-8.56-8.46V155.83a8.51,8.51,0,0,1,8.56-8.46h116.19a8.51,8.51,0,0,1,8.56,8.46V397.76A8.51,8.51,0,0,1-321.86,406.22Z" transform="translate(611.04 -54.66)"/><path class="cls-12" d="M-324.78,394.43H-435.13a5.13,5.13,0,0,1-5.16-5.1V164.27a5.14,5.14,0,0,1,5.16-5.11h110.35a5.14,5.14,0,0,1,5.16,5.11V389.33A5.13,5.13,0,0,1-324.78,394.43Z" transform="translate(611.04 -54.66)"/><path class="cls-9" d="M-331.17,386.66h-97.57a5,5,0,0,1-5-4.94V171.87a5,5,0,0,1,5-4.94h97.57a5,5,0,0,1,5,4.94V381.72A5,5,0,0,1-331.17,386.66Z" transform="translate(611.04 -54.66)"/><path class="cls-13" d="M-339.63,317.15h-80.65a4.32,4.32,0,0,1-4.34-4.29V233.17a4.32,4.32,0,0,1,4.34-4.29h80.65a4.31,4.31,0,0,1,4.33,4.29v79.69A4.31,4.31,0,0,1-339.63,317.15Z" transform="translate(611.04 -54.66)"/><path class="cls-14" d="M-348,277.47h-.07v.06Z" transform="translate(611.04 -54.66)"/><path class="cls-14" d="M-348.1,271.53h.06v-.06h-.06Z" transform="translate(611.04 -54.66)"/><path class="cls-14" d="M-366.25,304.53v-.06h-.06Z" transform="translate(611.04 -54.66)"/><path class="cls-14" d="M-369.36,265.48v.06h.06Z" transform="translate(611.04 -54.66)"/><path class="cls-10" d="M-344.88,289.38v-2.82l2.76-.13v-2.79h-8.82v2.79l2.74.16v8.75h-3v-5.75l-3-.18v-5.8l-2.85-.24v-2.75l3-.26v-2.82l6-.07c0-2,0-4,0-5.94h-9v-2.9l2.92-.24v-2.86h-6.11v5.82h-9.08v-5.81h-5.88v-3l2.8-.13c.06-1,.11-1.9.16-2.82l2.92-.25v-2.83h-3v-3h-3v5.82l-2.94.25c-.07.88-.15,1.77-.25,2.93h-2.89v2.84l3,.24v2.86h-2.86v5.9l2.93.25v2.85l3,.07v5.81l3.1.27v5.85h2.87v6.07h-5.9v3h9.11v5.89l3,.07v2.86l3,.24c.1,1.05.18,1.94.26,2.76h2.79c.08-1,.14-1.87.21-2.79l3-.24v-2.83l3.09-.13v-5.8h2.83c.08,1,.16,1.88.23,2.79l2.81.25v5.88h-5.81v2.81h8.84V289.62ZM-357,274.64h2.87v2.84H-357Zm-18.52-3.28h-2.86v-2.83h2.86Zm6.08,6.12h-5.9v-2.84h5.9Zm3.34-2.82h5.81v2.74h-5.81Zm0,6h5.82v2.73h-5.82Zm5.79,23.86h-2.87v-2.82h2.87Zm3-9.11h-8.82V286.6h8.82Zm.31,6.27h2.87v2.84H-357Z" transform="translate(611.04 -54.66)"/><path class="cls-14" d="M-411.93,268.62h.06v-.07Z" transform="translate(611.04 -54.66)"/><path class="cls-14" d="M-381.5,286.47v.06h.06v-.06Z" transform="translate(611.04 -54.66)"/><path class="cls-14" d="M-402.75,280.53h.06v-.06h-.06Z" transform="translate(611.04 -54.66)"/><path class="cls-14" d="M-384.47,286.53v-.06h-.06Z" transform="translate(611.04 -54.66)"/><path class="cls-14" d="M-378.46,277.53h.06v-.06h-.06Z" transform="translate(611.04 -54.66)"/><path class="cls-10" d="M-396.81,235.6h-21v20.75h21Zm-3,17.81h-14.91V238.67h14.91Z" transform="translate(611.04 -54.66)"/><path class="cls-10" d="M-342.17,235.61h-21v20.74h21Zm-3,17.74h-14.92V238.61h14.92Z" transform="translate(611.04 -54.66)"/><path class="cls-10" d="M-417.79,310.41h21V289.67h-21Zm3-17.79h14.91v14.74h-14.91Z" transform="translate(611.04 -54.66)"/><path class="cls-10" d="M-384.55,295.63h-8.92v14.8h2.88v-11.8h3.12v5.81l3,.15v5.78h3.12v-5.79l2.82-.16v-3h-6Z" transform="translate(611.04 -54.66)"/><path class="cls-14" d="M-381.5,262.47v.06h.06v-.06Z" transform="translate(611.04 -54.66)"/><path class="cls-10" d="M-390.46,262.53h2.89v5.82h3.1v-5.82l3-.06v-5.94h-3v-3h-3v3h-3v3h-9v2.86l2.93.24v2.83h5.9C-390.64,264.52-390.56,263.64-390.46,262.53Zm5.93-2.89v2.83h-3v-2.83Z" transform="translate(611.04 -54.66)"/><path class="cls-14" d="M-387.54,253.5l0,0h.06v-.06h-.06v.06Z" transform="translate(611.04 -54.66)"/><path class="cls-10" d="M-387.57,253.47v-5.86l3-.25v-2.75h-8.87v2.79l2.79.23v2.8l-2.79.14v5.9h2.86v-3Z" transform="translate(611.04 -54.66)"/><path class="cls-14" d="M-390.61,256.47v.06h.07v-.06Z" transform="translate(611.04 -54.66)"/><path class="cls-10" d="M-387.63,283.67h-5.86v8.69h9v-5.83l-3-.06C-387.55,285.52-387.59,284.57-387.63,283.67Zm-2.81,5.69v-2.83h2.87v2.83Z" transform="translate(611.04 -54.66)"/><path class="cls-14" d="M-384.47,286.53l-.06-.06v.06Z" transform="translate(611.04 -54.66)"/><path class="cls-10" d="M-372.39,292.4v-2.87h-2.86c-.09-1-.16-1.89-.25-3h-5.94v2.87l2.84.23v2.81l-2.75.14v5.8h2.82c.08-1,.16-1.9.24-2.9h2.87v-2.84Z" transform="translate(611.04 -54.66)"/><path class="cls-14" d="M-375.42,295.48v.06h.06v-.06Z" transform="translate(611.04 -54.66)"/><path class="cls-14" d="M-372.39,289.53h.06v-.06h-.06Z" transform="translate(611.04 -54.66)"/><path class="cls-14" d="M-351.07,265.53v-.06h-.06v.06Z" transform="translate(611.04 -54.66)"/><path class="cls-10" d="M-348,268.61v2.86h5.9v-5.91l-2.89-.14v-5.79h-3.1v5.9h-2.94v2.84Z" transform="translate(611.04 -54.66)"/><path class="cls-14" d="M-378.4,241.52v-.06h-.06Z" transform="translate(611.04 -54.66)"/><path class="cls-10" d="M-378.4,241.46h12v-3h-8.9c-.05-1-.09-1.88-.14-2.81h-5.87v2.78l2.94.25Z" transform="translate(611.04 -54.66)"/><path class="cls-14" d="M-411.8,265.46h-.06l.06.06Z" transform="translate(611.04 -54.66)"/><path class="cls-10" d="M-408.63,262.39h5.8v-2.78h-14.94v2.95h6v2.9h2.89C-408.81,264.35-408.73,263.47-408.63,262.39Z" transform="translate(611.04 -54.66)"/><path class="cls-14" d="M-378.4,241.52l-.06-.06v.06Z" transform="translate(611.04 -54.66)"/><path class="cls-10" d="M-381.31,247.39h8.83v-2.95h-6v-2.92h-2.85Z" transform="translate(611.04 -54.66)"/><path class="cls-10" d="M-369.29,256.47h2.85V247.6h-2.81c-.05,1-.1,1.86-.16,2.79l-2.92.25v2.83h3Z" transform="translate(611.04 -54.66)"/><path class="cls-14" d="M-372.33,253.47h-.06v.06h.06Z" transform="translate(611.04 -54.66)"/><path class="cls-14" d="M-369.32,256.5l0,0v.06h.07v-.06h-.07Z" transform="translate(611.04 -54.66)"/><path class="cls-14" d="M-375.4,253.51l0,0h.06v-.06h-.06v.06Z" transform="translate(611.04 -54.66)"/><path class="cls-10" d="M-381.44,256.47h2.87c.08-1,.15-1.83.25-3h2.9v-2.83h-9.05v2.83h3Z" transform="translate(611.04 -54.66)"/><path class="cls-14" d="M-384.47,253.47h-.06v.06h.06Z" transform="translate(611.04 -54.66)"/><path class="cls-14" d="M-381.44,256.47h-.06v.06h.06Z" transform="translate(611.04 -54.66)"/><path class="cls-14" d="M-366.25,304.53l-.06-.06v.06Z" transform="translate(611.04 -54.66)"/><path class="cls-10" d="M-375.25,307.37h8.94v-2.84h-8.94Z" transform="translate(611.04 -54.66)"/><path class="cls-10" d="M-351.13,259.65h-3v5.82h3Z" transform="translate(611.04 -54.66)"/><circle class="cls-10" cx="256.9" cy="210.84" r="0.04"/><path class="cls-14" d="M-348,277.47l-.07.06h.07Z" transform="translate(611.04 -54.66)"/><path class="cls-10" d="M-342.16,280.37v-2.84H-348v2.84Z" transform="translate(611.04 -54.66)"/><path class="cls-10" d="M-417.77,265.52v3h5.84c0-1,.05-2,.07-3Z" transform="translate(611.04 -54.66)"/><path class="cls-10" d="M-411.86,265.46v.06h.06Z" transform="translate(611.04 -54.66)"/><path class="cls-14" d="M-411.93,268.62l.06-.07h-.06Z" transform="translate(611.04 -54.66)"/><path class="cls-14" d="M-402.69,277.53v-.06h-.06v.06Z" transform="translate(611.04 -54.66)"/><path class="cls-10" d="M-396.8,280.47v-2.94h-5.89v2.94Z" transform="translate(611.04 -54.66)"/><path class="cls-14" d="M-396.68,268.47v.06h.06v-.06Z" transform="translate(611.04 -54.66)"/><path class="cls-14" d="M-396.65,265.5l0,0v-.06h-.06v.06h.06Z" transform="translate(611.04 -54.66)"/><path class="cls-10" d="M-402.57,265.53v2.94h5.89v-2.94Z" transform="translate(611.04 -54.66)"/><path class="cls-10" d="M-384.61,235.61h-2.79v5.81h2.79Z" transform="translate(611.04 -54.66)"/><path class="cls-10" d="M-390.72,238.65h-2.79v2.73h2.79Z" transform="translate(611.04 -54.66)"/><path class="cls-10" d="M-363.42,259.6h-2.74v2.94l2.74-.14Z" transform="translate(611.04 -54.66)"/><path class="cls-10" d="M-357.33,262.37v-2.78h-2.77v2.78Z" transform="translate(611.04 -54.66)"/><path class="cls-14" d="M-369.36,265.48l.06.06v-.06Z" transform="translate(611.04 -54.66)"/><path class="cls-10" d="M-366.24,262.6h-3.06v2.88l3,0C-366.29,264.51-366.26,263.56-366.24,262.6Z" transform="translate(611.04 -54.66)"/><path class="cls-14" d="M-366.26,265.46h-.06v.07Z" transform="translate(611.04 -54.66)"/><path class="cls-10" d="M-366.22,262.56l.06,0v-.06h-.07v.06h.07Z" transform="translate(611.04 -54.66)"/><path class="cls-10" d="M-399.52,286.39h2.78v-2.74h-2.78Z" transform="translate(611.04 -54.66)"/><path class="cls-14" d="M-366.26,265.46l-.06.07h.06Z" transform="translate(611.04 -54.66)"/><path class="cls-10" d="M-363.4,268.36v-2.83h-2.86v2.83Z" transform="translate(611.04 -54.66)"/><path class="cls-10" d="M-360.37,289.68h-2.84v2.69h2.84Z" transform="translate(611.04 -54.66)"/><path class="cls-10" d="M-402.86,241.57h-8.8v8.81h8.8Z" transform="translate(611.04 -54.66)"/><path class="cls-10" d="M-348.21,241.65h-8.87v8.73h8.87Z" transform="translate(611.04 -54.66)"/><path class="cls-10" d="M-411.65,304.39h8.84v-8.73h-8.84Z" transform="translate(611.04 -54.66)"/><path class="cls-10" d="M-387.38,277.53v-2.91l2.76-.23v-2.78h-5.8c-.09-1.08-.17-2-.27-3.08h-5.93v3h-9c-.09,1.08-.17,2-.24,2.85h-2.89v-5.79h-3.09c0,1.94,0,3.88,0,5.77h-2.87c-.09-1-.17-1.88-.24-2.73h-2.81v14.72h3v-8.79h3v6.06h2.95c.08,1,.16,1.89.22,2.68h2.84c.06-1,.11-1.82.16-2.68h2.92v-3.12h-5.89v-3.06h5.89v-2.83h12v2.8l-2.74.13v3h9v5.9h3v-5.82l3-.26v-2.86Z" transform="translate(611.04 -54.66)"/><rect class="cls-5" x="103.65" y="335.98" width="112.88" height="15.58"/><rect class="cls-15" x="202.57" y="335.98" width="4.9" height="15.58"/><rect class="cls-15" x="189.73" y="335.98" width="4.9" height="15.58"/><rect class="cls-15" x="176.89" y="335.98" width="4.9" height="15.58"/><rect class="cls-15" x="164.06" y="335.98" width="4.9" height="15.58"/><rect class="cls-15" x="151.22" y="335.98" width="4.9" height="15.58"/><rect class="cls-15" x="138.38" y="335.98" width="4.9" height="15.58"/><rect class="cls-15" x="125.54" y="335.98" width="4.9" height="15.58"/><rect class="cls-15" x="112.7" y="335.98" width="4.9" height="15.58"/><rect class="cls-16" x="122.92" y="320.4" width="112.88" height="15.58"/><rect class="cls-8" x="221.84" y="320.4" width="4.9" height="15.58"/><rect class="cls-8" x="209" y="320.4" width="4.9" height="15.58"/><rect class="cls-8" x="196.16" y="320.4" width="4.9" height="15.58"/><rect class="cls-8" x="183.32" y="320.4" width="4.9" height="15.58"/><rect class="cls-8" x="170.48" y="320.4" width="4.9" height="15.58"/><rect class="cls-8" x="157.65" y="320.4" width="4.9" height="15.58"/><rect class="cls-8" x="144.81" y="320.4" width="4.9" height="15.58"/><rect class="cls-8" x="131.97" y="320.4" width="4.9" height="15.58"/><polygon class="cls-5" points="132.82 304.8 164.43 197.72 149.3 193.36 117.69 300.44 132.82 304.8"/><polygon class="cls-15" points="135.36 296.22 136.73 291.56 121.6 287.2 120.22 291.85 135.36 296.22"/><polygon class="cls-15" points="138.95 284.04 140.32 279.38 125.19 275.02 123.82 279.67 138.95 284.04"/><polygon class="cls-15" points="142.55 271.86 143.92 267.2 128.79 262.84 127.41 267.49 142.55 271.86"/><polygon class="cls-15" points="146.14 259.68 147.51 255.03 132.38 250.66 131.01 255.31 146.14 259.68"/><polygon class="cls-15" points="149.74 247.5 151.11 242.84 135.98 238.48 134.6 243.13 149.74 247.5"/><polygon class="cls-15" points="153.33 235.32 154.71 230.67 139.57 226.3 138.2 230.96 153.33 235.32"/><polygon class="cls-15" points="156.93 223.14 158.3 218.49 143.17 214.12 141.79 218.78 156.93 223.14"/><polygon class="cls-15" points="160.52 210.96 161.9 206.31 146.76 201.94 145.39 206.59 160.52 210.96"/><rect class="cls-5" x="96.12" y="304.82" width="112.88" height="15.58"/><rect class="cls-16" x="96.12" y="309.81" width="112.88" height="5.61"/><path class="cls-17" d="M-525.27,182.27s1.88-4.07,3.07-6.35c0,0,5,3.83,6.82,1.75s2.75-6.37,3.87-7,2.76-.64,2.85-1.79-.7-3-1.07-4.16.28-2.44.51-3.18,2.62-6.23.94-8.77-14.91-7.64-19.73-2.57-8.85,11.16-9,13.94a39.36,39.36,0,0,1-2.12,9.69C-540,175.71-529.23,182.93-525.27,182.27Z" transform="translate(611.04 -54.66)"/><path class="cls-18" d="M-522.2,175.92a32.8,32.8,0,0,1-4.19-4.93,32.78,32.78,0,0,0,2.7,7.93C-523.18,177.88-522.64,176.77-522.2,175.92Z" transform="translate(611.04 -54.66)"/><path class="cls-10" d="M-512.34,156.17a2.87,2.87,0,0,0,1.89.51,3.64,3.64,0,0,0,2.38-.47,3.07,3.07,0,0,0,.94-1.68,8.22,8.22,0,0,0-.32-5.34,6.4,6.4,0,0,0-3.93-3.57,3.29,3.29,0,0,0-1.41-2.84,3.44,3.44,0,0,0-3.23-.37,5.73,5.73,0,0,0-.79-1.63,3.71,3.71,0,0,0-2.84-1.32,6.79,6.79,0,0,0-3.11.78,3,3,0,0,0-2-.64,11.86,11.86,0,0,0-7.4,3c-1.24,1-2.44,2.28-2.52,3.86a2.85,2.85,0,0,0-2,1.12,5.25,5.25,0,0,0-.93,2.07,5.86,5.86,0,0,0-.17,2,9.12,9.12,0,0,0,.22,1.16,3.23,3.23,0,0,0-1.34,1.58,5.63,5.63,0,0,0-.34,2.07,9.78,9.78,0,0,0,1,4.26c.26.54.55,1.21.77,1.77a3.1,3.1,0,0,0-.37,3,1.32,1.32,0,0,0,.33.54,1.62,1.62,0,0,0,.68.34,3.25,3.25,0,0,0,2.28-.1,1.93,1.93,0,0,0,1.15,2,2.62,2.62,0,0,0,1.94.19,2.24,2.24,0,0,0,1.44-1.28,1,1,0,0,0,.28.82,2.29,2.29,0,0,0,.68.51.76.76,0,0,0,.41.13.79.79,0,0,0,.29-.11,2.69,2.69,0,0,0,1.06-1.23,5.11,5.11,0,0,0,.27-1.17c.08-.55.17-1.09.25-1.64a4.79,4.79,0,0,0,.09-1.13,3.06,3.06,0,0,1-2.55-1.88,6.35,6.35,0,0,1-.31-3.24,2.88,2.88,0,0,1,.28-1.09,3,3,0,0,1,1.82-1.31,2.39,2.39,0,0,1,1.8-.06,1.78,1.78,0,0,1,.89,1.16,5,5,0,0,1,.12,1.5c0,1.11,0,2.21,0,3.32a3,3,0,0,1,.89-.06,10.29,10.29,0,0,1,.58-2.31c.15-.4.32-.79.49-1.18a1.61,1.61,0,0,0,1.65.49,2.56,2.56,0,0,0,1.22-.81,1.67,1.67,0,0,0,.41-.66,2.76,2.76,0,0,0,2.27,1.19,4.69,4.69,0,0,0,2.55-.78A13.76,13.76,0,0,0-512.34,156.17Z" transform="translate(611.04 -54.66)"/><path class="cls-18" d="M-526.88,157a1.93,1.93,0,0,0-1.1.55,1.26,1.26,0,0,0-.31.38,1.24,1.24,0,0,0-.11.47,4.18,4.18,0,0,0,.65,2.57,1,1,0,0,0,.37.38.42.42,0,0,0,.5-.08c.07-.1.08-.24.14-.34a.37.37,0,0,1,.41-.14c.08,0,.15.09.24.08a.32.32,0,0,0,.18-.18,4,4,0,0,0,.13-2.46C-525.9,157.61-526,157-526.88,157Z" transform="translate(611.04 -54.66)"/><path class="cls-19" d="M-540.44,175a118.71,118.71,0,0,1-10.67,8.89c-4,2.71-6.85,13.8-13,19.39,0,0,5.74,7.61,11.14,11.42l2.22-1.78s-2.56,14-2.84,18.7-3.17,15.65-4.47,17.64,1.8,1.28,5.79,1.56,21.85,3.28,23.58,1.14,2.73-19.49,4.89-25.18,5.18-20.62,3.46-26.88-4.22-12.77-6.06-14.67S-540.44,175-540.44,175Z" transform="translate(611.04 -54.66)"/><path class="cls-20" d="M-557.22,247.32a10.58,10.58,0,0,1-.86,1.94c-1.29,2,1.8,1.28,5.79,1.56s21.85,3.28,23.58,1.14a8.8,8.8,0,0,0,1-3C-535.59,250.09-551,248.19-557.22,247.32Z" transform="translate(611.04 -54.66)"/><path class="cls-20" d="M-540.44,175s1.46-3.47,2-3.38,1.7,2.92,5.21,5.65c2.37,1.84,8.31,4.16,8.31,4.16l-.77,5S-537.49,179.77-540.44,175Z" transform="translate(611.04 -54.66)"/><path class="cls-21" d="M-521.89,194.9c.54,1.62,1.06,3.32,1.53,5,1.12,4.06.24,11.77-1.11,18.24a23.82,23.82,0,0,0,3.08,2.4c3.27-6.2,5.86-16.12,5.86-16.12A51.68,51.68,0,0,1-521.89,194.9Z" transform="translate(611.04 -54.66)"/><path class="cls-20" d="M-519.78,219.56c.8.61,1.39,1,1.39,1,3.27-6.2,5.86-16.12,5.86-16.12-.61-.46-1.21-.94-1.79-1.43C-515,206.11-517,214.18-519.78,219.56Z" transform="translate(611.04 -54.66)"/><path class="cls-20" d="M-553,214.7l1.58-1.26a117.21,117.21,0,0,1-11-12,18.45,18.45,0,0,1-1.72,1.81S-558.39,210.89-553,214.7Z" transform="translate(611.04 -54.66)"/><path class="cls-5" d="M-550.77,212.92s-1.14,6.25-2,11.8c5.74-6.83,13.56-27.12,13.56-27.12C-542.54,205.48-550.77,212.92-550.77,212.92Z" transform="translate(611.04 -54.66)"/><path class="cls-17" d="M-489.12,212.92c-9.86-1.73-16.45-1.41-18.12-2.17s-5.52-5.49-5.52-5.49h0a99.66,99.66,0,0,1-4.7,13.37c1.93,1.12,4.82,1.87,8.27,2.72,7.57,1.87,29.51-1.23,29.51-1.23l7.7-5.42A130.55,130.55,0,0,1-489.12,212.92Z" transform="translate(611.04 -54.66)"/><path class="cls-18" d="M-512.28,220.56c-1.13-3.81,0-11.38.45-14.2-.56-.65-.93-1.1-.93-1.1h0a99.66,99.66,0,0,1-4.7,13.37A22.41,22.41,0,0,0-512.28,220.56Z" transform="translate(611.04 -54.66)"/><path class="cls-20" d="M-536.39,204.7v2.51a58.28,58.28,0,0,0,12.23,1V205.7A59,59,0,0,1-536.39,204.7Z" transform="translate(611.04 -54.66)"/><path class="cls-11" d="M-552.29,250.82c-2-.14-3.79,0-4.89-.14-1.08,2.41-4.58,10.95-2.52,16,2.42,6,2.55,11.4,2.82,15.38s1.07,8.09,0,9.55,1.22,3.71.54,5.17-.95,6.37.13,11.67,1.17,20.52,0,22.44-9.14,7.3-11.27,11.33-9.14,15.36-9.14,15.36,5.55,7.87,12.49,10.56c2.08-1.62,1.82-5.51,4.11-6.83,0,0,16-19.47,19.55-24.66s7.57-24,8.35-36.87c.72-11.87,1.27-42.51,1.35-47.19C-536,253.18-548.95,251.06-552.29,250.82Z" transform="translate(611.04 -54.66)"/><path class="cls-22" d="M-552.29,250.82c-2-.14-3.79,0-4.89-.14a44.06,44.06,0,0,0-2.11,5.78,41.53,41.53,0,0,1,12.12-1.89c4.89-.15,9.8.09,14.68-.4a10.59,10.59,0,0,1,1.69,0c0-.64,0-1.18,0-1.54C-536,253.18-548.95,251.06-552.29,250.82Z" transform="translate(611.04 -54.66)"/><path class="cls-11" d="M-528.71,252a3.21,3.21,0,0,1-2.06.67c-.08,4.68-.63,35.32-1.35,47.19-.78,12.87-4.86,31.69-8.35,36.87-2.1,3.11-8.72,11.36-13.68,17.47-.46,4.1-.94,8.1-1.17,9.12-.51,2.25-.89,4.61,0,4.9a96.87,96.87,0,0,0,13.88,0c2.28-.37,2.4-1.17,2-5.13s2.23-16.31,3-23.14,4.58-13.88,6.21-35.16S-528.71,252-528.71,252Z" transform="translate(611.04 -54.66)"/><path class="cls-22" d="M-536.18,337.87c1.19-6.32,4.43-13.94,5.9-33.12,1.63-21.28,1.57-52.79,1.57-52.79a3.21,3.21,0,0,1-2.06.67c-.08,4.68-.63,35.32-1.35,47.19-.78,12.87-4.86,31.69-8.35,36.87-2.1,3.11-8.72,11.36-13.68,17.47-.21,1.88-.43,3.74-.62,5.31C-550.06,354.75-541.74,346-536.18,337.87Z" transform="translate(611.04 -54.66)"/><path class="cls-17" d="M-541.44,368.18a98.27,98.27,0,0,1-10.91.2c.09,4.28.3,13.13.44,15.45A93.75,93.75,0,0,1-552.4,394s11.95,1.36,11-1.64S-541.44,368.18-541.44,368.18Z" transform="translate(611.04 -54.66)"/><path class="cls-18" d="M-552.35,368.38c0,1.56.08,3.74.14,6a20.39,20.39,0,0,1,10.64-3.26c.07-1.78.13-2.92.13-2.92A98.27,98.27,0,0,1-552.35,368.38Z" transform="translate(611.04 -54.66)"/><path class="cls-19" d="M-552.76,398.14a23.66,23.66,0,0,1,0-3.84,2.24,2.24,0,0,1,2.62-1.4c1.12.2,4.24,1.59,5.4.53s2.33-2,3.35-1.92a10.79,10.79,0,0,1,4.53,2.45c1,1,10.22,6.35,13.38,6.54s5.5.58,5.89,1.15-.25,2.79,0,3.37-.36,1.2-.36,1.2h-34.13a3,3,0,0,1-.77-2.26C-552.81,402.42-554,400.64-552.76,398.14Z" transform="translate(611.04 -54.66)"/><path class="cls-23" d="M-517.59,401.65c-.37-.54-2.5-.92-5.42-1.12a4.05,4.05,0,0,0-2.08,3.34,3.62,3.62,0,0,0,.92,2.35h6.22s.6-.63.36-1.2S-517.21,402.23-517.59,401.65Z" transform="translate(611.04 -54.66)"/><path class="cls-24" d="M-552.83,404.5a2.78,2.78,0,0,0,.75,1.72h34.13s.6-.63.36-1.2a1.3,1.3,0,0,1,0-.52Z" transform="translate(611.04 -54.66)"/><path class="cls-23" d="M-552.76,398.14c-1.22,2.5,0,4.28-.09,5.82a4.61,4.61,0,0,0,0,.54h12.52A13.42,13.42,0,0,0-552.76,398.14Z" transform="translate(611.04 -54.66)"/><path class="cls-24" d="M-539,396c2.27,1.77,9.18,4.61,10.13,4.8s2.78-1,2.78-1h0A53.12,53.12,0,0,1-536.86,394a9.77,9.77,0,0,0-2.15-1.51S-541.28,394.28-539,396Z" transform="translate(611.04 -54.66)"/><path class="cls-17" d="M-574.68,360c-2.29,3.45-4.83,7.31-5.66,8.66a96.6,96.6,0,0,1-6.24,8.09s9.05,7.82,10,4.79c.58-1.92,6-9.42,9.93-14.64A33.56,33.56,0,0,1-574.68,360Z" transform="translate(611.04 -54.66)"/><path class="cls-18" d="M-577.65,364.53c2.6.62,7,1.93,9.73,4.06.42-.57.83-1.13,1.23-1.65a33.56,33.56,0,0,1-8-6.9C-575.68,361.54-576.72,363.11-577.65,364.53Z" transform="translate(611.04 -54.66)"/><path class="cls-19" d="M-589.27,380a24.54,24.54,0,0,1,2.21-3.17,2.27,2.27,0,0,1,3,.33c.81.79,2.57,3.68,4.14,3.47s3.07-.36,3.86.3a10.52,10.52,0,0,1,2.32,4.56c.22,1.37,4.75,10.95,7.25,12.89s4.19,3.56,4.18,4.25-1.81,2.16-1.94,2.77-1,.79-1,.79L-593.35,387a3,3,0,0,1,.67-2.29C-591.77,383.49-591.71,381.37-589.27,380Z" transform="translate(611.04 -54.66)"/><path class="cls-23" d="M-562.34,402.63c0-.66-1.53-2.16-3.82-4a4.12,4.12,0,0,0-3.63,1.58,3.55,3.55,0,0,0-.59,2.45l5.11,3.49s.86-.18,1-.79S-562.36,403.32-562.34,402.63Z" transform="translate(611.04 -54.66)"/><path class="cls-24" d="M-593,385.2a2.78,2.78,0,0,0-.37,1.83l28.08,19.16s.86-.18,1-.79A1.45,1.45,0,0,1-564,405Z" transform="translate(611.04 -54.66)"/><path class="cls-23" d="M-589.27,380c-2.44,1.37-2.5,3.49-3.41,4.74a3,3,0,0,0-.3.46l10.31,7A13.2,13.2,0,0,0-589.27,380Z" transform="translate(611.04 -54.66)"/><path class="cls-24" d="M-576.74,386c.86,2.73,4.91,8.95,5.59,9.64s2.88.71,2.88.71h0c-2.44-3.5-5.33-9.75-5.5-10.84a9.7,9.7,0,0,0-.9-2.46S-577.59,383.26-576.74,386Z" transform="translate(611.04 -54.66)"/><path class="cls-12" d="M-444.48,205.26l-91.86,59.52a4.47,4.47,0,0,1-6.16-1.27l-.46-.68a4.37,4.37,0,0,1,1.29-6.09l91.86-59.52Z" transform="translate(611.04 -54.66)"/><path class="cls-25" d="M-522.53,249.8a11.33,11.33,0,0,0-3.36-2.39,6.17,6.17,0,0,0-.92-.3l-11.31,7.32.07,0c.67.35,1.8,0,2.52-.05a17.83,17.83,0,0,1,3.34.25c2.14.34,4.21,1,6.31,1.46.74.16,1.48.31,2.24.42l4.62-3A43,43,0,0,0-522.53,249.8Z" transform="translate(611.04 -54.66)"/><polygon class="cls-26" points="171.25 150.25 157.2 159.35 149.63 147.95 163.69 138.84 171.25 150.25"/><path class="cls-25" d="M-449.93,211.48l10.14-6.57-7.56-11.4-10.1,6.54A50,50,0,0,0-449.93,211.48Z" transform="translate(611.04 -54.66)"/><ellipse class="cls-27" cx="199.52" cy="124.07" rx="46.26" ry="45.71"/><ellipse class="cls-28" cx="199.52" cy="124.07" rx="40.09" ry="39.62"/><ellipse class="cls-12" cx="199.52" cy="124.07" rx="37.09" ry="36.66"/><ellipse class="cls-9" cx="199.52" cy="124.07" rx="33.24" ry="32.85"/><path class="cls-12" d="M-407.83,154.05a6.62,6.62,0,0,1-6.66,6.59,6.63,6.63,0,0,1-6.67-6.59,6.62,6.62,0,0,1,6.67-6.58A6.62,6.62,0,0,1-407.83,154.05Z" transform="translate(611.04 -54.66)"/><path class="cls-12" d="M-396.79,154.05a3.84,3.84,0,0,1-3.86,3.82,3.84,3.84,0,0,1-3.86-3.82,3.84,3.84,0,0,1,3.86-3.81A3.84,3.84,0,0,1-396.79,154.05Z" transform="translate(611.04 -54.66)"/><path class="cls-17" d="M-512.54,250.53c-.46-.71-5.61-4.82-5.61-4.82s.55-1.64.69-2.28-3.18-2.37-4.43-3-4.41-.61-6.6-1.28-13.39-8.48-18.19-12.77-12.53-7.53-12.53-7.53a14.89,14.89,0,0,0,5.64-4.41l-.27-.36a62.57,62.57,0,0,1-9.26-9.49c-1.53,1.95-7.8,10.15-7.55,14.37.27,4.81,4.31,9.61,9.27,12.79s17.24,8.06,20.12,9.74a50.49,50.49,0,0,1,7.88,6c1.54,1.48,4.68,6,7.41,6.92s2.37,1.52,4.22,2.24,1.9-1.07,1.9-1.07l1.86.83c1.85.84,2.21-.83,2.21-.83s0,.35,1.29.71,1.75-.1,2-.81-.46-1.94-.46-1.94A2.56,2.56,0,0,0-512.54,250.53Z" transform="translate(611.04 -54.66)"/><path class="cls-18" d="M-565.3,207.53c2.49,1.47,8.41,5.12,11,7.8a9.29,9.29,0,0,0,.75-.9l-.27-.36a62.57,62.57,0,0,1-9.26-9.49C-563.53,205.14-564.36,206.2-565.3,207.53Z" transform="translate(611.04 -54.66)"/><path class="cls-29" d="M-519.85,255.52a18.92,18.92,0,0,1-1.81-1.2l-1.72-1.31a6.77,6.77,0,0,1,1.93,1A9.34,9.34,0,0,1-519.85,255.52Z" transform="translate(611.04 -54.66)"/><path class="cls-29" d="M-515.78,255.52c-1-.65-2-1.4-2.89-2.14a33.63,33.63,0,0,1-2.67-2.4,32.72,32.72,0,0,1,2.89,2.14A33.63,33.63,0,0,1-515.78,255.52Z" transform="translate(611.04 -54.66)"/><path class="cls-29" d="M-512.9,253.48c-1.2-.69-2.32-1.48-3.45-2.27s-2.21-1.63-3.25-2.56c1.2.69,2.32,1.49,3.45,2.28S-513.93,252.56-512.9,253.48Z" transform="translate(611.04 -54.66)"/><path class="cls-29" d="M-518.15,245.71a10.38,10.38,0,0,1-1.69-1,10.47,10.47,0,0,1-1.5-1.25,10.07,10.07,0,0,1,1.7,1A11.09,11.09,0,0,1-518.15,245.71Z" transform="translate(611.04 -54.66)"/><path class="cls-30" d="M-538.08,244.39l-2.82-2a.47.47,0,0,1-.12-.65l5-7a.48.48,0,0,1,.66-.12l2.82,2a.47.47,0,0,1,.12.65l-5,7A.48.48,0,0,1-538.08,244.39Z" transform="translate(611.04 -54.66)"/><path class="cls-31" d="M-536.22,243.45l-4.12-2.86a.58.58,0,0,1-.14-.82l2.89-4.07a.59.59,0,0,1,.83-.14l4.12,2.86a.58.58,0,0,1,.15.82l-2.9,4.07A.59.59,0,0,1-536.22,243.45Z" transform="translate(611.04 -54.66)"/><path class="cls-17" d="M-458,219.92a1.52,1.52,0,0,0,.18-.92,5.56,5.56,0,0,0-.42-2.25,2.3,2.3,0,0,0-1.8-1.43l-2.83,1.83s-2.94-1.35-4.27-.91-1.28,1.23-.77,1.66c0,0-2.61-1.31-3.6-.43s.51,2.5.51,2.5-1.8-.46-2.22.39,1.49,2.53,1.49,2.53-2-.25-1.77,1.15,3.53,2.54,6.11,2.76,3,.33,3.3,0a3,3,0,0,0,.36-.9c.16-.4.62-.58,1-.8a2.9,2.9,0,0,0,1.11-1.22,2,2,0,0,1,.3-.54,2.08,2.08,0,0,1,.55-.38,2.45,2.45,0,0,0,.92-1,3.77,3.77,0,0,1,.29-.61C-459.17,220.79-458.34,220.46-458,219.92Z" transform="translate(611.04 -54.66)"/><path class="cls-29" d="M-467.87,217.9a9.28,9.28,0,0,0,1.45.79c.5.23,1,.45,1.52.64,1,.41,2.08.73,3.13,1.13a11.43,11.43,0,0,1-1.65-.31,14.82,14.82,0,0,1-1.6-.5A7.69,7.69,0,0,1-467.87,217.9Z" transform="translate(611.04 -54.66)"/><path class="cls-29" d="M-471,220a18.65,18.65,0,0,0,3.33,1.56,32.63,32.63,0,0,0,3.54,1,10.47,10.47,0,0,1-1.85-.2,13.8,13.8,0,0,1-1.81-.49A9.46,9.46,0,0,1-471,220Z" transform="translate(611.04 -54.66)"/><path class="cls-29" d="M-471.69,222.89a20.27,20.27,0,0,0,2.68,1c.9.3,1.83.51,2.77.76a9.35,9.35,0,0,1-2.88-.43A7.48,7.48,0,0,1-471.69,222.89Z" transform="translate(611.04 -54.66)"/><path class="cls-10" d="M-257.38,167.45c.14-3.56.55-9.3-.79-14.18a23.12,23.12,0,0,1,3.06,5.67,17.7,17.7,0,0,0-3.75-7.68c-1.68-4.07-5-7.1-11.33-6.95a21.41,21.41,0,0,1,2.87-1.07,11.78,11.78,0,0,0-4.42,1l-.27-.06a15.44,15.44,0,0,0-6.4-2.11,41.27,41.27,0,0,1,4.46,1.77c-2.46-.34-6.1-.49-8.57,1a14.6,14.6,0,0,0-4.17,3.56h0s-2.24,2-4.09,6.82a34.33,34.33,0,0,1,2.3-3.56,22.67,22.67,0,0,0-1.13,9c.39,9.74,4.43,10.81-.79,21,0,0,.47.22,1.32.51a34.73,34.73,0,0,0,1.35-3.3,25.37,25.37,0,0,1-.35,3.61c.42.12.89.25,1.4.36l2-2.23a21.66,21.66,0,0,1-1.09,2.42,26.43,26.43,0,0,0,5.52.48c6-.09,13.51,0,13.51,0a24.94,24.94,0,0,0,4.74-.06l.28-2.71.93,2.55a22.68,22.68,0,0,0,2.28-.48l-.36-3.31,1.2,3.06a17,17,0,0,0,2.07-.81A49.77,49.77,0,0,1-257.38,167.45Z" transform="translate(611.04 -54.66)"/><path class="cls-32" d="M-269.6,162.16a19.53,19.53,0,0,1-8.21,4.24H-278a20.57,20.57,0,0,0,2.85-1.5c-6.58,1.49-11.69-3.24-11.69-3.24s-1.22,16.8,9.94,19.36c8,1.85,13.19-7.77,14.92-11.66C-268.66,167.25-269.6,162.16-269.6,162.16Z" transform="translate(611.04 -54.66)"/><path class="cls-33" d="M-268.16,178.41c-2.34,2.08-5.26,3.41-8.72,2.61a10.55,10.55,0,0,1-4.93-2.61h0s.38,3.65-1.55,4.64a24.07,24.07,0,0,1-3.5,1.49,15.88,15.88,0,0,0,10.24,3.76c5.93-.19,11.47-3.76,11.47-3.76s-2.26-.26-2.9-.93C-268.43,183.22-268.32,180.53-268.16,178.41Z" transform="translate(611.04 -54.66)"/><path class="cls-11" d="M-253,210.93s6.39-1.15,9.62-2.78a27.47,27.47,0,0,1-2.4-7.05c-.53-3.42-2.25-10.32-3.08-10.84s-12.47-5.57-16.33-5.72c0,0-5.54,3.57-11.47,3.76a15.88,15.88,0,0,1-10.24-3.76s-7.33,1.37-12.06,3.77-5.3,5.12-5.65,6.94-1,17.65-1,17.65a44.76,44.76,0,0,0,12.44,0s-.48,9.74.55,15.67-.3,10.84.58,11.28,13.61-.15,20.78-.72,15.49.57,15.65-.44-.6-9.11,0-11.57S-253,210.93-253,210.93Z" transform="translate(611.04 -54.66)"/><ellipse class="cls-27" cx="338.01" cy="162.36" rx="14.49" ry="16.78"/><path class="cls-27" d="M-244.67,205.05a26.56,26.56,0,0,1-9,2.64l.72,3.24s6.39-1.15,9.62-2.78A32.76,32.76,0,0,1-244.67,205.05Z" transform="translate(611.04 -54.66)"/><path class="cls-32" d="M-231.25,209.15a4.59,4.59,0,0,1,.34-1.33,3.75,3.75,0,0,0-.67-2.22c-.2-.24,0-1.33,0-1.8a2.62,2.62,0,0,0-.94-1.83,15.42,15.42,0,0,0-3.84-2.29c-.3,0-1.21.07-1.11.9s2.76,2.86,2.76,2.86-1.51-.24-2.56-.34a1.21,1.21,0,0,0-1.31.83s-.23-1.26-.6-2.89-1.58-2.59-2.32-2-.38,5.51-.49,6.51a12.41,12.41,0,0,0,.51,4.53,8.44,8.44,0,0,1,1,4.49c-.2,1.86-2.21,5.84-2.21,5.84-.66-3.91-1.83-9.7-2.21-11.56a56.21,56.21,0,0,1-8,2.1s-.74,5-1.47,9.5c.88,7.6,3.9,18.45,5.54,19.57,1.92,1.3,5.46.44,8.92-3s5.43-18.23,5.56-18.86,1-2.92,1.89-3.56a6.59,6.59,0,0,0,1.65-3.29C-230.73,210.58-231.25,209.52-231.25,209.15Z" transform="translate(611.04 -54.66)"/><path class="cls-34" d="M-248.51,232.27c.45-1,.87-2,1.33-3s.91-2,1.41-3c1-2,2-3.93,3.05-5.87a40.38,40.38,0,0,0-3.37,5.71A38,38,0,0,0-248.51,232.27Z" transform="translate(611.04 -54.66)"/><path class="cls-34" d="M-236.11,206.09a2.85,2.85,0,0,1,.29,0c.59.21,1.17.41,1.72.67a5.13,5.13,0,0,1,1.85,1.49,4.27,4.27,0,0,0-1.72-1.73,23.94,23.94,0,0,0-2.24-1,3.23,3.23,0,0,1-1-.58,2,2,0,0,1-.61-.91c-.1-.34.24-.59.62-.68a5.88,5.88,0,0,1,1.2-.17,4.68,4.68,0,0,0-1.24,0,1.33,1.33,0,0,0-.6.24.7.7,0,0,0-.25.65,2.66,2.66,0,0,0,1.68,1.76,1.6,1.6,0,0,0-1,.26.94.94,0,0,0-.4.6.88.88,0,0,0,.24.69,4.55,4.55,0,0,0,1,.82,16.76,16.76,0,0,1,2.07,1.35,5.5,5.5,0,0,1,.86.88,2,2,0,0,1,.53,1.08,3.27,3.27,0,0,0-1.2-2.16,14.22,14.22,0,0,0-2.06-1.45,4.43,4.43,0,0,1-.95-.73.54.54,0,0,1,.08-.86A1.62,1.62,0,0,1-236.11,206.09Z" transform="translate(611.04 -54.66)"/><path class="cls-35" d="M-237.45,200.63l0,0c-.1-.83.81-.93,1.11-.9a15.86,15.86,0,0,1,3,1.6,6.56,6.56,0,0,0-2.67-2.43c-1.82-.89-2.73-1.13-3.11-.66s.68,1.57,1,1.84A8.84,8.84,0,0,0-237.45,200.63Z" transform="translate(611.04 -54.66)"/><path class="cls-36" d="M-240.75,215a6,6,0,0,0,2.75,2.42,17.58,17.58,0,0,0,3.57,1.1c.14,0,.3.1.35.23a1.16,1.16,0,0,1,.07.42,4.84,4.84,0,0,1-.4,1.91,1.46,1.46,0,0,1-.29.44.52.52,0,0,1-.48.15,14.89,14.89,0,0,1-6.46-3.77A4.1,4.1,0,0,1-240.75,215Z" transform="translate(611.04 -54.66)"/><path class="cls-27" d="M-262.57,185a13.35,13.35,0,0,0-2.58-.47s-5.54,3.57-11.47,3.76a15.88,15.88,0,0,1-10.24-3.76s-1.17.22-2.86.64C-287,187.57-276.17,195.49-262.57,185Z" transform="translate(611.04 -54.66)"/><path class="cls-37" d="M-246.8,214.82l-27,6A1,1,0,0,1-275,220l-4.11-18.15a1,1,0,0,1,.77-1.2l27-6a1,1,0,0,1,1.22.76l4.11,18.14A1,1,0,0,1-246.8,214.82Z" transform="translate(611.04 -54.66)"/><ellipse class="cls-38" cx="350.25" cy="153.62" rx="2.94" ry="2.9"/><path class="cls-36" d="M-251.22,197.74a.87.87,0,0,1-.87.87.87.87,0,0,1-.87-.87.87.87,0,0,1,.87-.86A.87.87,0,0,1-251.22,197.74Z" transform="translate(611.04 -54.66)"/><path class="cls-39" d="M-292.55,197.72a96,96,0,0,1-.47,12.34l-.25,7.92C-289.66,198.25-292.55,197.72-292.55,197.72Z" transform="translate(611.04 -54.66)"/><path class="cls-32" d="M-293.16,212.9v7.94a12.28,12.28,0,0,0,3.43-1.24c1.53-.9,3.76-1.58,4.32-2.34a9.2,9.2,0,0,0,1.18-3.17,26.72,26.72,0,0,1,.84-4c.28-.48,3.75-4.75,4.93-5.37l1.07,4.71c.35.14,3.82-1.69,5.44-3.05s3.52-1.74,4.09-1.46-.33,1.51-.67,1.74-1.57,1.08-1.57,1.08,3.24-1.45,4-1.36.95.66.52,1.36a16,16,0,0,1-2.47,2.31s1.62-.38,1.86.65-2.48,2.64-2.48,2.64,1.53-.15,1,1-3.42,3.1-4.94,5.17a13.32,13.32,0,0,1-5.42,3.81c-.81.23-3.52.28-5.71,1.55s-9.94,8.69-14.17,8.93-5.42-1.6-6-4.8-.24-16.3-.24-16.3Z" transform="translate(611.04 -54.66)"/><path class="cls-40" d="M-304.27,216.85c.28-.13.55-.25.83-.35a20.56,20.56,0,0,1,3.37-.86c2.29-.41,4.61-.55,6.91-.8V212.9l-11-.21S-304.24,214.46-304.27,216.85Z" transform="translate(611.04 -54.66)"/><path class="cls-34" d="M-293.16,220.84c-.77.45-1.54.87-2.28,1.36s-1.46,1-2.21,1.47a8.14,8.14,0,0,1,2-1.77A8,8,0,0,1-293.16,220.84Z" transform="translate(611.04 -54.66)"/><path class="cls-34" d="M-270.1,207.75c-1.26,1.08-2.6,2-3.93,3s-2.72,1.89-4.15,2.72c1.26-1.08,2.6-2,3.94-3S-271.53,208.59-270.1,207.75Z" transform="translate(611.04 -54.66)"/><path class="cls-34" d="M-268.1,210.06c-1.29,1-2.64,1.95-4,2.89l-2,1.39c-.68.46-1.35.91-2,1.39a30.77,30.77,0,0,1,3.86-3.07C-270.92,211.75-269.55,210.84-268.1,210.06Z" transform="translate(611.04 -54.66)"/><path class="cls-34" d="M-268.72,213.35c-1,.89-2.18,1.67-3.31,2.46s-2.29,1.52-3.51,2.17c1.05-.9,2.18-1.68,3.31-2.47S-269.94,214-268.72,213.35Z" transform="translate(611.04 -54.66)"/><path class="cls-27" d="M-305.47,210.06l-.13,2.84c4.43,1.16,12.39.21,12.39.21l.19-3.05C-295.92,210.72-305.47,210.06-305.47,210.06Z" transform="translate(611.04 -54.66)"/><path class="cls-32" d="M-271.25,239.13c-5.88.47-15.5.94-19.26.86h0s-.34,8-2.22,13.06c0,0,11.62,3.58,37.11-1.52a103.27,103.27,0,0,1-1.59-12.42C-260,239.22-265.93,238.7-271.25,239.13Z" transform="translate(611.04 -54.66)"/><path class="cls-41" d="M-249.38,284.83c-.27-6.64-.23-20.73-6-33.78-23.13,4.7-37.76,1.69-37.76,1.69a56.68,56.68,0,0,0-5.18,21.36c-.47,12.1,2.32,29.86,4.18,38s2.95,21.44,2.79,23.73-2.48,34.92-.15,43.49c0,0,4,1.53,10.84,0,0,0,.52-18.68,2.39-26.34s4.22-24.44,4.12-27.34.45-38.59.45-38.59,1.64,25,2.4,35.46.76,14.86.12,19.85-1.63,31-.87,37.72c0,0,5.93,3.12,10.73,0,0,0,3.6-29.43,5.11-37.44s1.92-16,2.2-18.45S-249.1,291.48-249.38,284.83Z" transform="translate(611.04 -54.66)"/><path class="cls-42" d="M-273,271a79.49,79.49,0,0,0-.7,16s.43,6.59,1,14.42C-270.94,273.87-273,271-273,271Z" transform="translate(611.04 -54.66)"/><path class="cls-10" d="M-255.41,251.05c-23.13,4.7-37.76,1.69-37.76,1.69s-.62,1.23-1.43,3.35c0,0,32.39,3,40.61-1.48C-254.43,253.42-254.89,252.23-255.41,251.05Z" transform="translate(611.04 -54.66)"/><path class="cls-10" d="M-284.85,261.58s-2.92,7.4-7.88,10.16L-292,273c7.49-4.25,9-10.75,9-10.75Z" transform="translate(611.04 -54.66)"/><path class="cls-10" d="M-261.56,261.58s2.92,7.4,7.88,10.16l-.74,1.27c-7.49-4.25-9-10.75-9-10.75Z" transform="translate(611.04 -54.66)"/><path class="cls-32" d="M-262.36,380.61c-3.32,1.56-6.92.57-8.66-.09.34,5-.08,14.78-.08,14.78s11.13,3.67,9.6,0C-262.78,392.24-262.49,383.44-262.36,380.61Z" transform="translate(611.04 -54.66)"/><path class="cls-11" d="M-272.25,402.2s.47-6,1.17-7.53a2.54,2.54,0,0,1,3.59-1.23c1.35.67,1.35,1.2,2.38.85s2.32-1.55,3.17-1.52a6.38,6.38,0,0,1,3.14,1.59c.92.81,2.52,3.76,6.87,4.78s6.3,1.58,7.33,1.55,4.95.28,5.59,1.51-.18,4-.18,4h-30.89S-272.11,405.7-272.25,402.2Z" transform="translate(611.04 -54.66)"/><path class="cls-27" d="M-247.42,406.21h8.23s.82-2.78.18-4c-.56-1.07-3.62-1.45-5.08-1.51A10,10,0,0,0-247.42,406.21Z" transform="translate(611.04 -54.66)"/><path class="cls-11" d="M-271.77,404.47a2.89,2.89,0,0,0,1.69,1.74h30.89a12.15,12.15,0,0,0,.36-1.74Z" transform="translate(611.04 -54.66)"/><path class="cls-27" d="M-263.74,399.75A3.23,3.23,0,0,1-267,403a3.23,3.23,0,0,1-3.24-3.21,3.23,3.23,0,0,1,3.24-3.21A3.23,3.23,0,0,1-263.74,399.75Z" transform="translate(611.04 -54.66)"/><path class="cls-11" d="M-249.37,401.37a3.3,3.3,0,0,0,1.88-1.17l-4.44-1.06c-4.35-1-5.95-4-6.87-4.78a6.41,6.41,0,0,0-.58-.45c-.46.51-1.3,1.54-1.15,2.28C-260.31,397.19-251.91,402.11-249.37,401.37Z" transform="translate(611.04 -54.66)"/><path class="cls-27" d="M-249.19,399.24a.26.26,0,0,0-.36,0,6.88,6.88,0,0,0-1.52,2.61.25.25,0,0,0,.17.32h.08a.25.25,0,0,0,.24-.18,6.43,6.43,0,0,1,1.41-2.42A.25.25,0,0,0-249.19,399.24Z" transform="translate(611.04 -54.66)"/><path class="cls-27" d="M-251.53,398.64a7.58,7.58,0,0,0-2,2.74.26.26,0,0,0,.16.33h.08a.27.27,0,0,0,.25-.17,7.17,7.17,0,0,1,1.91-2.55.25.25,0,0,0,0-.36A.25.25,0,0,0-251.53,398.64Z" transform="translate(611.04 -54.66)"/><path class="cls-27" d="M-253.49,397.85a.25.25,0,0,0-.36,0,10.19,10.19,0,0,0-2.09,2.53.25.25,0,0,0,.11.35.2.2,0,0,0,.11,0,.24.24,0,0,0,.23-.14,10.48,10.48,0,0,1,2-2.41A.25.25,0,0,0-253.49,397.85Z" transform="translate(611.04 -54.66)"/><path class="cls-27" d="M-255.31,396.89a.27.27,0,0,0-.37,0,23.86,23.86,0,0,0-1.94,2.44.26.26,0,0,0,.07.36.28.28,0,0,0,.15,0,.26.26,0,0,0,.21-.11,22.8,22.8,0,0,1,1.89-2.39A.25.25,0,0,0-255.31,396.89Z" transform="translate(611.04 -54.66)"/><path class="cls-27" d="M-256.7,395.77a.26.26,0,0,0-.37,0c-.82.88-1.62,1.81-2.37,2.76a.27.27,0,0,0,.05.36.24.24,0,0,0,.16.05.23.23,0,0,0,.2-.1c.74-.94,1.52-1.86,2.34-2.72A.25.25,0,0,0-256.7,395.77Z" transform="translate(611.04 -54.66)"/><path class="cls-27" d="M-257.83,394.55l.09-.06.53-.32a5.88,5.88,0,0,0,.6-.35,2.32,2.32,0,0,0,1.21-2,1.5,1.5,0,0,0-.65-1.09,1.57,1.57,0,0,0-1.25-.21,2.11,2.11,0,0,0-1,.63,3.1,3.1,0,0,0-.6.89,3.17,3.17,0,0,0-.26,1.32v.13a4,4,0,0,0,0,.7,5.2,5.2,0,0,0-1.1-.14,6.13,6.13,0,0,0-2.09.27c-.54.17-.86.48-.86.86a.82.82,0,0,0,.39.67,1.73,1.73,0,0,0,.62.2,4.46,4.46,0,0,0,.63.05,4.6,4.6,0,0,0,1.22-.17,5.07,5.07,0,0,0,.51-.17c-.39.5-.75,1-1.09,1.54a.25.25,0,0,0,.08.35.25.25,0,0,0,.14,0,.25.25,0,0,0,.22-.12,18.81,18.81,0,0,1,2.21-2.82A2.11,2.11,0,0,0-257.83,394.55Zm-.78-1v-.14a3,3,0,0,1,.22-1.13h0a2.34,2.34,0,0,1,.51-.74,1.52,1.52,0,0,1,.72-.48.73.73,0,0,1,.25,0,1,1,0,0,1,.57.17,1,1,0,0,1,.42.72c.08.74-.73,1.33-1,1.49l-.57.34c-.19.11-.38.21-.56.33l-.11.08h0a.25.25,0,0,0-.26,0l-.12.14h0A1.52,1.52,0,0,1-258.61,393.54Zm-1.83,1.93a4.11,4.11,0,0,1-1.63.11,1.21,1.21,0,0,1-.42-.13.31.31,0,0,1-.15-.23c0-.17.25-.31.49-.38h0a5.49,5.49,0,0,1,1.67-.25h.27a3.39,3.39,0,0,1,1.2.18h0A2.79,2.79,0,0,1-260.44,395.47Z" transform="translate(611.04 -54.66)"/><path class="cls-32" d="M-290,390.34l0,0c1.1-.59,2.58,1.93,5,1.09,1.92-.66,2.37-1.11,2.84-1.19-.22-3.35-.2-8.51-.17-10.61a22.49,22.49,0,0,1-7.9.06C-289.88,383.09-289.94,388.59-290,390.34Z" transform="translate(611.04 -54.66)"/><path class="cls-11" d="M-283.56,406.22h-6.68s-3.18,0-3.62-1.92.78-3.43,1.66-5.19a10.27,10.27,0,0,0,1.4-5.16c-.11-1.68-.22-3.06.89-3.64s2.58,1.93,5,1.09,2.51-1.34,3.25-1.18a1.69,1.69,0,0,1,1.37,1.29c.07.58-.71,3-.26,4.78s1.88,5.43,2,6.45-.78,3.17-2.51,3.31S-283.56,406.22-283.56,406.22Z" transform="translate(611.04 -54.66)"/><path class="cls-11" d="M-283.67,390.92c-.33.15-.72.3-1.23.48a3.67,3.67,0,0,1-3.18-.55c0,1.67,0,8-1.82,10.36-2.11,2.68,8.42-.22,8.42-.22S-283.91,395.47-283.67,390.92Z" transform="translate(611.04 -54.66)"/><path class="cls-27" d="M-278.51,402.74a9.68,9.68,0,0,0-.28-1.07c-6.36-3.9-12.79-1.06-14.75,0a4.14,4.14,0,0,0-.32,2.64h0c3.64.33,9.53.86,9.63.83a41.21,41.21,0,0,0,4.79.08A3.47,3.47,0,0,0-278.51,402.74Z" transform="translate(611.04 -54.66)"/><path class="cls-11" d="M-278.53,402.66a2.76,2.76,0,0,1-2,1.18c-1.91.16-2.8.18-2.8.18h-7.39a5.84,5.84,0,0,1-3.25-.94,3.63,3.63,0,0,0,.06,1.22c.44,2,3.62,1.92,3.62,1.92h6.68s.8,0,2.54-.17,2.65-2.29,2.51-3.31C-278.52,402.71-278.52,402.68-278.53,402.66Z" transform="translate(611.04 -54.66)"/><path class="cls-27" d="M-281.37,398.36a24.56,24.56,0,0,0-8.46.39.26.26,0,0,0-.19.31.25.25,0,0,0,.25.2h.06a24,24,0,0,1,8.27-.39.26.26,0,0,0,.29-.22A.24.24,0,0,0-281.37,398.36Z" transform="translate(611.04 -54.66)"/><path class="cls-27" d="M-289,396.69a.25.25,0,0,0-.2.3.26.26,0,0,0,.3.2,19.07,19.07,0,0,1,4.33-.38,4.92,4.92,0,0,1,2.21.45l.12,0a.27.27,0,0,0,.23-.14.27.27,0,0,0-.11-.35,5.58,5.58,0,0,0-2.43-.5A19.55,19.55,0,0,0-289,396.69Z" transform="translate(611.04 -54.66)"/><path class="cls-27" d="M-289.32,395.34a.27.27,0,0,0,.26.2h.05a16.38,16.38,0,0,1,6.28-.14.26.26,0,0,0,.3-.21.25.25,0,0,0-.21-.29,16.63,16.63,0,0,0-6.48.14A.27.27,0,0,0-289.32,395.34Z" transform="translate(611.04 -54.66)"/><path class="cls-27" d="M-282.74,393.93h0a.27.27,0,0,0,.26-.22.26.26,0,0,0-.22-.29,23.21,23.21,0,0,0-6.34-.05.26.26,0,0,0-.22.29.26.26,0,0,0,.29.22A22.51,22.51,0,0,1-282.74,393.93Z" transform="translate(611.04 -54.66)"/><path class="cls-27" d="M-279.57,388.68a1.27,1.27,0,0,0-.55-.23,4.23,4.23,0,0,0-1-.05,4.06,4.06,0,0,0-1.78.42,6.27,6.27,0,0,0-.63.42,15.67,15.67,0,0,0-2.05,1.7l-.06.05a3.94,3.94,0,0,0-.42.51l-.07-.08a4.49,4.49,0,0,0-5.09-1.91.82.82,0,0,0-.54,1h0c.23.7,1,1,1.6,1.22a8.79,8.79,0,0,0,1.81.43l-.44,0a.25.25,0,0,0-.24.27.28.28,0,0,0,.27.24l2.65-.17h.11a7.14,7.14,0,0,1,2.83.23l.09,0a.26.26,0,0,0,.24-.17.24.24,0,0,0-.1-.28,6.18,6.18,0,0,0,1.78-.5,9.44,9.44,0,0,0,1.34-.83,1.58,1.58,0,0,0,.5-.47,1.42,1.42,0,0,0,.16-.59A1.34,1.34,0,0,0-279.57,388.68Zm-11.68,1.67c0-.14.05-.27.28-.38a4,4,0,0,1,4.43,1.73,1.36,1.36,0,0,0,.18.21l.08.09-1.52-.26-.43-.08a9.43,9.43,0,0,1-1.73-.4C-290.44,391.07-291.09,390.82-291.25,390.35Zm11.6-.46a.86.86,0,0,1-.1.37,1.07,1.07,0,0,1-.35.31,8.3,8.3,0,0,1-1.26.79,6,6,0,0,1-2.23.54c-.35,0-.73,0-1.17,0H-285a3.81,3.81,0,0,1-.68,0c0-.05.06-.19.43-.57l.07-.06h0a14.41,14.41,0,0,1,2-1.65,4.5,4.5,0,0,1,.56-.37,3.66,3.66,0,0,1,1.56-.36,3.6,3.6,0,0,1,.85,0,1,1,0,0,1,.34.14A.92.92,0,0,1-279.65,389.89Z" transform="translate(611.04 -54.66)"/><path class="cls-40" d="M-271.25,239.13c-5.88.47-15.5.94-19.26.86h0s-.12,2.71-.59,6c10.47-3.84,27.41-5.09,34-5.34,0-.53-.07-1-.09-1.51C-260,239.22-265.93,238.7-271.25,239.13Z" transform="translate(611.04 -54.66)"/><path class="cls-40" d="M-267.74,384.93a35.68,35.68,0,0,1,5.28-1.49c0-1.17.07-2.17.1-2.83-3.32,1.56-6.92.57-8.66-.09.11,1.62.14,3.74.13,5.87A21.91,21.91,0,0,1-267.74,384.93Z" transform="translate(611.04 -54.66)"/><path class="cls-40" d="M-290.13,379.66c.09,1.2.13,2.65.16,4.11,1.93-.66,3.88-1.25,5.86-1.74a16.86,16.86,0,0,1,1.86-.3c0-.86,0-1.59,0-2.13A22.49,22.49,0,0,1-290.13,379.66Z" transform="translate(611.04 -54.66)"/><path class="cls-27" d="M-352.17,347.66h-55.57a2.42,2.42,0,0,1-2.44-2.4V331.4a2.42,2.42,0,0,1,2.44-2.41h55.57a2.42,2.42,0,0,1,2.44,2.41v13.86A2.42,2.42,0,0,1-352.17,347.66Z" transform="translate(611.04 -54.66)"/><text class="cls-43" transform="translate(206.47 287.2) scale(1.01 1)">SCAN</text><path class="cls-11" d="M-226.94,301a8.28,8.28,0,0,1,3.25-10c3.51-2.08,7.47,0,9.31,3.35a6.86,6.86,0,0,1,.54,6,1.54,1.54,0,0,0,.53,2.05,1.52,1.52,0,0,0,2.06-.53c2.19-5-.34-11-5.09-13.55a8.92,8.92,0,0,0-7.82-.39,10.55,10.55,0,0,0-5.27,5.28,11,11,0,0,0-.4,8.66,1.55,1.55,0,0,0,1.85,1,1.5,1.5,0,0,0,1-1.84Z" transform="translate(611.04 -54.66)"/><text x="611.04" y="-54.66"/><text x="611.04" y="-54.66"/><text x="611.04" y="-54.66"/><text x="611.04" y="-54.66"/></g></svg>